<?xml version="1.0" encoding="UTF-8"?>
<!DOCTYPE svg PUBLIC "-//W3C//DTD SVG 1.1//EN" "http://www.w3.org/Graphics/SVG/1.1/DTD/svg11.dtd">
<svg xmlns="http://www.w3.org/2000/svg" version="1.1" width="368px" height="317px" style="shape-rendering:geometricPrecision; text-rendering:geometricPrecision; image-rendering:optimizeQuality; fill-rule:evenodd; clip-rule:evenodd" xmlns:xlink="http://www.w3.org/1999/xlink">
<g><path style="opacity:0.996" fill="#fece2e" d="M 190.5,-0.5 C 202.833,-0.5 215.167,-0.5 227.5,-0.5C 273.535,5.42908 311.368,26.0958 341,61.5C 355.726,81.9393 364.559,104.606 367.5,129.5C 367.5,140.5 367.5,151.5 367.5,162.5C 354.558,236.953 311.891,285.453 239.5,308C 225.238,311.928 210.904,314.762 196.5,316.5C 183.167,316.5 169.833,316.5 156.5,316.5C 107.928,311.63 66.7617,291.63 33,256.5C 14.7744,235.384 3.60776,211.05 -0.5,183.5C -0.5,173.833 -0.5,164.167 -0.5,154.5C 3.15912,130.015 14.4925,109.848 33.5,94C 47.7686,85.3943 61.7686,76.3943 75.5,67C 87.5242,55.9749 99.1909,44.6416 110.5,33C 134.058,14.3868 160.725,3.22015 190.5,-0.5 Z"/></g>
</svg>
