<?xml version="1.0" encoding="UTF-8"?>
<svg version="1.1" xmlns="http://www.w3.org/2000/svg" width="500" height="500">
<path d="M0 0 C2.61133245 2.37656536 5.15783486 4.80703822 7.69921875 7.2578125 C9.0053954 8.3694522 10.3175412 9.47413238 11.63671875 10.5703125 C57.45180976 50.57653717 83.57748473 117.65136161 88.51831055 176.9465332 C92.10547554 242.60472322 77.06086275 308.55697875 33.125 359.2265625 C30.84979042 361.75088261 28.5467958 364.23359652 26.19726562 366.68798828 C25.17614251 367.75803744 24.16207397 368.83485267 23.15429688 369.91748047 C8.60771443 385.51900173 -8.52108262 397.27573693 -27.30078125 407.2578125 C-27.9772168 407.62068359 -28.65365234 407.98355469 -29.35058594 408.35742188 C-51.06413756 419.8104877 -75.26022797 426.01099019 -99.30078125 430.2578125 C-100.29094238 430.43570312 -101.28110352 430.61359375 -102.30126953 430.796875 C-129.7956034 435.49819621 -162.31147777 436.32020453 -189.48828125 429.5703125 C-191.12011353 429.16993774 -191.12011353 429.16993774 -192.78491211 428.76147461 C-201.86008687 426.47742937 -210.60993978 423.71585716 -219.30078125 420.2578125 C-220.28667236 419.87786133 -220.28667236 419.87786133 -221.29248047 419.49023438 C-247.85670008 409.1622211 -271.98908109 389.74233144 -289.30078125 367.2578125 C-289.92726563 366.52046875 -290.55375 365.783125 -291.19921875 365.0234375 C-333.58328071 314.85454784 -344.35654691 242.15258915 -339.61328125 178.7578125 C-334.83880373 122.5210277 -316.69473706 65.44614705 -279.30078125 22.2578125 C-278.24310547 21.03384766 -278.24310547 21.03384766 -277.1640625 19.78515625 C-263.30436943 4.08413951 -248.30424127 -9.00829502 -230.30078125 -19.7421875 C-229.18832031 -20.40863281 -228.07585937 -21.07507813 -226.9296875 -21.76171875 C-211.42295181 -30.68121239 -193.73580306 -36.89824568 -176.30078125 -40.7421875 C-175.08261719 -41.01546875 -173.86445313 -41.28875 -172.609375 -41.5703125 C-113.75707785 -53.68521524 -46.25215375 -39.66939627 0 0 Z " fill="#F86559" transform="translate(375.30078125,59.7421875)"/>
<path d="M0 0 C0 0.33 0 0.66 0 1 C-2.47960136 0.85975781 -4.95852402 0.7130815 -7.4375 0.5625 C-8.14455078 0.52318359 -8.85160156 0.48386719 -9.58007812 0.44335938 C-14.88671875 0.11328125 -14.88671875 0.11328125 -16 -1 C-17.32781878 -1.20604085 -18.66295895 -1.3662959 -20 -1.5 C-23.88888889 -1.88888889 -23.88888889 -1.88888889 -25 -3 C-26.32781878 -3.20604085 -27.66295895 -3.3662959 -29 -3.5 C-32.88888889 -3.88888889 -32.88888889 -3.88888889 -34 -5 C-35.5906331 -5.09854422 -37.18561477 -5.12798694 -38.77929688 -5.12939453 C-40.30592957 -5.13412277 -40.30592957 -5.13412277 -41.86340332 -5.13894653 C-42.97066772 -5.1369223 -44.07793213 -5.13489807 -45.21875 -5.1328125 C-46.9110675 -5.13424759 -46.9110675 -5.13424759 -48.63757324 -5.13571167 C-51.02840226 -5.13639368 -53.41923311 -5.13453797 -55.81005859 -5.13037109 C-59.48409151 -5.12502316 -63.15800217 -5.13031543 -66.83203125 -5.13671875 C-69.14843777 -5.13605797 -71.46484422 -5.13477682 -73.78125 -5.1328125 C-74.8885144 -5.13483673 -75.99577881 -5.13686096 -77.13659668 -5.13894653 C-78.15435181 -5.13579437 -79.17210693 -5.13264221 -80.22070312 -5.12939453 C-81.57186218 -5.12820114 -81.57186218 -5.12820114 -82.95031738 -5.12698364 C-84.99323069 -5.22744606 -84.99323069 -5.22744606 -86 -4 C-87.55948542 -3.84313751 -89.12542668 -3.74923361 -90.69140625 -3.68359375 C-91.63564453 -3.64169922 -92.57988281 -3.59980469 -93.55273438 -3.55664062 C-95.04256836 -3.49766602 -95.04256836 -3.49766602 -96.5625 -3.4375 C-97.55958984 -3.39431641 -98.55667969 -3.35113281 -99.58398438 -3.30664062 C-102.0558415 -3.20019702 -104.5278031 -3.09818072 -107 -3 C-107 -3.33 -107 -3.66 -107 -4 C-71.45724001 -11.63812894 -34.8565269 -10.55289346 0 0 Z " fill="#EA8E87" transform="translate(306,23)"/>
<path d="M0 0 C0 0.33 0 0.66 0 1 C-2.93678947 1.48388552 -5.87432276 1.96217411 -8.8125 2.4375 C-10.03356445 2.63956055 -10.03356445 2.63956055 -11.27929688 2.84570312 C-23.52115811 4.81400238 -35.53164238 5.1588641 -47.9074707 5.13037109 C-50.69162388 5.12499203 -53.47561722 5.13035274 -56.25976562 5.13671875 C-58.05208368 5.13605821 -59.84440165 5.13477754 -61.63671875 5.1328125 C-62.45774582 5.13483673 -63.27877289 5.13686096 -64.12467957 5.13894653 C-69.16796953 5.11868859 -74.00697654 4.71894969 -79 4 C-79 3.67 -79 3.34 -79 3 C-61.18 3 -43.36 3 -25 3 C-25 2.34 -25 1.68 -25 1 C-8.29157175 -0.14806378 -8.29157175 -0.14806378 0 0 Z " fill="#EC8F88" transform="translate(281,488)"/>
<path d="M0 0 C0.33 0 0.66 0 1 0 C1.37232071 22.1616742 1.37232071 22.1616742 0 30.125 C-2.50112316 44.81244663 -2.64938254 63.49370439 1 78 C1.06548492 79.58211573 1.08578381 81.16670081 1.0625 82.75 C1.05347656 83.54921875 1.04445313 84.3484375 1.03515625 85.171875 C1.01775391 86.07679688 1.01775391 86.07679688 1 87 C0.34 86.67 -0.32 86.34 -1 86 C-1.41064453 84.15942383 -1.41064453 84.15942383 -1.6328125 81.70703125 C-1.71692383 80.78220947 -1.80103516 79.8573877 -1.88769531 78.90454102 C-1.96600586 77.88416748 -2.04431641 76.86379395 -2.125 75.8125 C-2.2084668 74.74894287 -2.29193359 73.68538574 -2.37792969 72.58959961 C-4.08087304 48.48600039 -3.69187324 23.91402574 0 0 Z " fill="#F3ACA6" transform="translate(38,219)"/>
<path d="M0 0 C0.33 0 0.66 0 1 0 C1.21003783 12.50209796 1.39227481 24.6755128 -1 37 C-1.33 37 -1.66 37 -2 37 C-2.23302818 24.48120831 -1.79849819 12.39679111 0 0 Z " fill="#ED8A80" transform="translate(38,219)"/>
<path d="M0 0 C1 2 1 2 0.44262695 3.75244141 C-0.02977417 4.79150635 -0.02977417 4.79150635 -0.51171875 5.8515625 C-0.85783203 6.62113281 -1.20394531 7.39070313 -1.56054688 8.18359375 C-1.93244141 8.98925781 -2.30433594 9.79492188 -2.6875 10.625 C-3.21633789 11.79869141 -3.21633789 11.79869141 -3.75585938 12.99609375 C-6.05249785 18.05961478 -8.48640378 23.04089594 -11 28 C-11.33 28 -11.66 28 -12 28 C-12 26.35 -12 24.7 -12 23 C-11.34 23 -10.68 23 -10 23 C-9.34 20.03 -8.68 17.06 -8 14 C-7.34 14 -6.68 14 -6 14 C-5.896875 13.34 -5.79375 12.68 -5.6875 12 C-4.8202682 8.21571578 -3.70768426 4.49707589 -2 1 C-1.34 0.67 -0.68 0.34 0 0 Z " fill="#EC8480" transform="translate(447,350)"/>
<path d="M0 0 C0 2.125 0 2.125 -1 5 C-2.96706973 6.73390413 -5.01669004 8.19879558 -7.1875 9.66796875 C-9.13264811 10.88538716 -9.13264811 10.88538716 -10 13 C-12.4375 14.6875 -12.4375 14.6875 -15 16 C-15.66 15.67 -16.32 15.34 -17 15 C-14.54976242 12.49195282 -12.08852402 9.9949924 -9.625 7.5 C-8.57699219 6.42685547 -8.57699219 6.42685547 -7.5078125 5.33203125 C-6.8375 4.65527344 -6.1671875 3.97851562 -5.4765625 3.28125 C-4.85861816 2.65283203 -4.24067383 2.02441406 -3.60400391 1.37695312 C-2 0 -2 0 0 0 Z " fill="#EE8780" transform="translate(119,60)"/>
<path d="M0 0 C0.99 0 1.98 0 3 0 C3.25394531 0.66386719 3.50789063 1.32773437 3.76953125 2.01171875 C5.93894564 7.59723028 5.93894564 7.59723028 8.75 12.875 C10 15 10 15 10 19 C10.66 19 11.32 19 12 19 C12.33 20.98 12.66 22.96 13 25 C9.47112494 20.94774123 7.15130254 16.72480502 4.8125 11.9375 C4.27979492 10.87692383 4.27979492 10.87692383 3.73632812 9.79492188 C2.12428679 6.53719129 0.79282254 3.56351831 0 0 Z " fill="#EC8982" transform="translate(57,378)"/>
<path d="M0 0 C0.66 0.33 1.32 0.66 2 1 C-0.71500576 4.58229926 -3.52480524 7.52491649 -7 10.375 C-7.845625 11.08398438 -8.69125 11.79296875 -9.5625 12.5234375 C-12 14 -12 14 -14.3125 13.7265625 C-15.1478125 13.36691406 -15.1478125 13.36691406 -16 13 C-10.87008301 8.31211667 -5.74728311 3.91304382 0 0 Z " fill="#EE7D75" transform="translate(135,46)"/>
<path d="M0 0 C0.33 0 0.66 0 1 0 C1.6761872 3.85255857 2.33923092 7.70726957 3 11.5625 C3.19078125 12.64853516 3.3815625 13.73457031 3.578125 14.85351562 C4.50674068 20.30913274 5.25413964 25.46452096 5 31 C4.67 31 4.34 31 4 31 C1.1367892 20.51956802 -0.17492249 10.84519429 0 0 Z " fill="#ED9890" transform="translate(458,205)"/>
<path d="M0 0 C-3.32542127 1.35382763 -6.6601619 2.68217231 -10 4 C-11.03125 4.4125 -12.0625 4.825 -13.125 5.25 C-16.87158193 6.2273692 -20.13398399 6.1333109 -24 6 C-20.32798686 3.55199124 -16.76419546 2.55078304 -12.5625 1.3125 C-11.79873047 1.07466797 -11.03496094 0.83683594 -10.24804688 0.59179688 C-9.13719727 0.26211914 -9.13719727 0.26211914 -8.00390625 -0.07421875 C-6.99565796 -0.37718872 -6.99565796 -0.37718872 -5.96704102 -0.6862793 C-3.70038715 -1.04778485 -2.16955474 -0.6917026 0 0 Z " fill="#EC9289" transform="translate(199,21)"/>
<path d="M0 0 C1 2 1 2 0.3984375 3.98828125 C-1.78431027 8.94528478 -3.77692782 12.55486217 -8 16 C-8.66 16 -9.32 16 -10 16 C-8.55797524 11.84848662 -6.4989562 8.70021555 -3.875 5.1875 C-3.15054688 4.21167969 -2.42609375 3.23585938 -1.6796875 2.23046875 C-0.84824219 1.12638672 -0.84824219 1.12638672 0 0 Z " fill="#EE8A85" transform="translate(88,92)"/>
<path d="M0 0 C-1.68988817 2.07670092 -2.59786013 2.92334628 -5.26831055 3.43237305 C-6.56442261 3.47164917 -6.56442261 3.47164917 -7.88671875 3.51171875 C-8.82451172 3.54716797 -9.76230469 3.58261719 -10.72851562 3.61914062 C-11.70498047 3.64169922 -12.68144531 3.66425781 -13.6875 3.6875 C-15.16959961 3.73874023 -15.16959961 3.73874023 -16.68164062 3.79101562 C-19.12098053 3.87350538 -21.55996063 3.94265068 -24 4 C-24 3.67 -24 3.34 -24 3 C-21.50159546 2.49061655 -19.00176612 1.99236886 -16.5 1.5 C-15.80390625 1.35691406 -15.1078125 1.21382812 -14.390625 1.06640625 C-9.50912797 0.11722627 -4.97281701 -0.13440046 0 0 Z " fill="#ED908A" transform="translate(223,16)"/>
<path d="M0 0 C0.33 0 0.66 0 1 0 C1 2.31 1 4.62 1 7 C0.01 7.495 0.01 7.495 -1 8 C-1.65555119 10.52733235 -1.65555119 10.52733235 -2 13 C-2.99 13 -3.98 13 -5 13 C-5 13.66 -5 14.32 -5 15 C-5.66 15 -6.32 15 -7 15 C-5.45454854 9.52067211 -2.84456788 4.88570819 0 0 Z " fill="#EF8781" transform="translate(70,120)"/>
<path d="M0 0 C8.71624869 0.36900907 16.68549452 1.30202781 25 4 C25 4.33 25 4.66 25 5 C22.52039864 4.85975781 20.04147598 4.7130815 17.5625 4.5625 C16.85544922 4.52318359 16.14839844 4.48386719 15.41992188 4.44335938 C10.11328125 4.11328125 10.11328125 4.11328125 9 3 C6.9412232 2.72046781 4.88271568 2.55265649 2.8125 2.37890625 C1.9153125 2.19134766 1.9153125 2.19134766 1 2 C0.67 1.34 0.34 0.68 0 0 Z " fill="#EC837B" transform="translate(281,19)"/>
<path d="M0 0 C2.06578763 3.09868145 2.74691358 5.34976306 3.625 8.9375 C3.88539063 9.97777344 4.14578125 11.01804688 4.4140625 12.08984375 C5 15 5 15 5 19 C4.01 18.67 3.02 18.34 2 18 C2 16.68 2 15.36 2 14 C1.34 14 0.68 14 0 14 C0 9.38 0 4.76 0 0 Z " fill="#EE9085" transform="translate(453,185)"/>
<path d="M0 0 C0.33 0 0.66 0 1 0 C1.22134176 2.12368444 1.42670007 4.24904024 1.625 6.375 C1.74101563 7.55835938 1.85703125 8.74171875 1.9765625 9.9609375 C1.98429687 10.96382812 1.99203125 11.96671875 2 13 C1.34 13.66 0.68 14.32 0 15 C-0.70710678 16.64991582 -1.37943989 18.31562256 -2 20 C-3.31052767 15.69577494 -2.45785552 12.0629466 -1.5625 7.75 C-1.41490234 7.00492188 -1.26730469 6.25984375 -1.11523438 5.4921875 C-0.7511306 3.65992335 -0.37658591 1.82973947 0 0 Z " fill="#EF918C" transform="translate(42,196)"/>
<path d="M0 0 C4.30764815 1.56641751 8.06171464 3.68336156 12 6 C11.67 6.66 11.34 7.32 11 8 C8.4375 8.625 8.4375 8.625 6 9 C5.67 7.35 5.34 5.7 5 4 C4.360625 3.896875 3.72125 3.79375 3.0625 3.6875 C2.381875 3.460625 1.70125 3.23375 1 3 C0.67 2.01 0.34 1.02 0 0 Z " fill="#EE877A" transform="translate(340,38)"/>
<path d="M0 0 C0.66 0.33 1.32 0.66 2 1 C1.67 1.66 1.34 2.32 1 3 C0.34 3 -0.32 3 -1 3 C-1 3.66 -1 4.32 -1 5 C-9.03571429 7.27678571 -9.03571429 7.27678571 -13 6 C-10.87959258 4.96966118 -8.75352092 3.95097146 -6.625 2.9375 C-5.44164062 2.36902344 -4.25828125 1.80054688 -3.0390625 1.21484375 C-2.03617188 0.81394531 -1.03328125 0.41304687 0 0 Z " fill="#EF908B" transform="translate(163,31)"/>
<path d="M0 0 C2.44563312 2.44563312 3.34131255 4.75525172 4.6875 7.9375 C5.14511719 8.99839844 5.60273438 10.05929688 6.07421875 11.15234375 C7 14 7 14 6 17 C5.71125 16.38125 5.4225 15.7625 5.125 15.125 C3.77981013 12.58408581 2.57749699 11.28874849 0 10 C0 6.7 0 3.4 0 0 Z " fill="#ED8D85" transform="translate(436,140)"/>
<path d="M0 0 C-1.55500981 3.81684226 -4.03595495 6.19195732 -7 9 C-7.36363636 3.54545455 -7.36363636 3.54545455 -5.75 1.125 C-4 0 -4 0 0 0 Z " fill="#EF827B" transform="translate(416,408)"/>
<path d="M0 0 C0.33 1.32 0.66 2.64 1 4 C0.34 4 -0.32 4 -1 4 C-1.33 5.65 -1.66 7.3 -2 9 C-3.32 9 -4.64 9 -6 9 C-6 9.66 -6 10.32 -6 11 C-6.66 11 -7.32 11 -8 11 C-6.63629701 8.00779732 -5.05091917 5.70973471 -2.875 3.25 C-2.33617188 2.63640625 -1.79734375 2.0228125 -1.2421875 1.390625 C-0.62730469 0.70226562 -0.62730469 0.70226562 0 0 Z " fill="#EC8D85" transform="translate(101,76)"/>
<path d="M0 0 C-5.445 4.455 -5.445 4.455 -11 9 C-11.66 7.68 -12.32 6.36 -13 5 C-11.35 5 -9.7 5 -8 5 C-8 4.34 -8 3.68 -8 3 C-7.34 3 -6.68 3 -6 3 C-6.33 2.01 -6.66 1.02 -7 0 C-3.98968256 -0.93423645 -3.13349732 -1.04449911 0 0 Z " fill="#EE8C88" transform="translate(384,443)"/>
<path d="M0 0 C3.62276315 1.3255581 6.63505348 2.94346955 9.8125 5.125 C10.60269531 5.66382813 11.39289063 6.20265625 12.20703125 6.7578125 C12.79871094 7.16773438 13.39039063 7.57765625 14 8 C13.34 8.66 12.68 9.32 12 10 C11.01 9.34 10.02 8.68 9 8 C9 7.34 9 6.68 9 6 C8.2575 5.896875 7.515 5.79375 6.75 5.6875 C3.8026481 4.95066203 2.21616926 4.05200858 0 2 C0 1.34 0 0.68 0 0 Z " fill="#ED8D87" transform="translate(352,45)"/>
<path d="M0 0 C-2.12040742 1.03033882 -4.24647908 2.04902854 -6.375 3.0625 C-8.15003906 3.91521484 -8.15003906 3.91521484 -9.9609375 4.78515625 C-10.96382813 5.18605469 -11.96671875 5.58695312 -13 6 C-13.66 5.67 -14.32 5.34 -15 5 C-14.67 4.01 -14.34 3.02 -14 2 C-10.625 0.875 -10.625 0.875 -7 0 C-3.86650268 -1.04449911 -3.01031744 -0.93423645 0 0 Z " fill="#EE938E" transform="translate(344,469)"/>
<path d="M0 0 C0.33 0.66 0.66 1.32 1 2 C0.26821134 4.07196631 -0.55899003 6.1108552 -1.4375 8.125 C-1.91058594 9.22070312 -2.38367188 10.31640625 -2.87109375 11.4453125 C-3.24363281 12.28835938 -3.61617188 13.13140625 -4 14 C-4.33 14 -4.66 14 -5 14 C-4.09068323 5.05838509 -4.09068323 5.05838509 -2 1 C-1.34 0.67 -0.68 0.34 0 0 Z " fill="#EF8E89" transform="translate(447,350)"/>
<path d="M0 0 C3.22269618 3.79817765 5.74520378 7.57391854 8 12 C7.67 12.66 7.34 13.32 7 14 C3.32769295 10.92000054 2.43197635 8.7517398 2 4 C1.34 4 0.68 4 0 4 C0 2.68 0 1.36 0 0 Z " fill="#EB918A" transform="translate(425,120)"/>
<path d="M0 0 C0.99 0 1.98 0 3 0 C1.55007731 4.10811428 -0.45407573 7.46855666 -3 11 C-3.33 11 -3.66 11 -4 11 C-3.74438677 8.6568787 -3.40729228 6.32156597 -3 4 C-2.34 3.67 -1.68 3.34 -1 3 C-0.67 2.01 -0.34 1.02 0 0 Z " fill="#ED8D89" transform="translate(429,384)"/>
<path d="M0 0 C-1.98 2.31 -3.96 4.62 -6 7 C-6.66 5.68 -7.32 4.36 -8 3 C-7.01 2.67 -6.02 2.34 -5 2 C-5.66 1.34 -6.32 0.68 -7 0 C-4.3333581 -1.33332095 -2.83319697 -0.67102033 0 0 Z " fill="#F1857D" transform="translate(408,419)"/>
<path d="M0 0 C0.66 0.33 1.32 0.66 2 1 C-0.8475202 5.05224029 -3.36660757 7.1869334 -8 9 C-8.66 8.67 -9.32 8.34 -10 8 C-6.7 5.36 -3.4 2.72 0 0 Z " fill="#EC948E" transform="translate(135,46)"/>
<path d="M0 0 C1.5 1.25 1.5 1.25 3 3 C3 4.32 3 5.64 3 7 C3.66 7 4.32 7 5 7 C5.33 8.98 5.66 10.96 6 13 C3.36113331 9.81516089 0.85505895 6.7101179 -1 3 C-0.67 2.01 -0.34 1.02 0 0 Z " fill="#ED968F" transform="translate(64,390)"/>
<path d="M0 0 C0.33 0 0.66 0 1 0 C1.33 2.97 1.66 5.94 2 9 C0.35 9.66 -1.3 10.32 -3 11 C-2.01 7.37 -1.02 3.74 0 0 Z " fill="#F09086" transform="translate(52,160)"/>
<path d="M0 0 C3.63 0 7.26 0 11 0 C11 0.99 11 1.98 11 3 C9.741875 2.87625 8.48375 2.7525 7.1875 2.625 C6.12595703 2.52058594 6.12595703 2.52058594 5.04296875 2.4140625 C3 2 3 2 0 0 Z " fill="#EE8F8B" transform="translate(173,485)"/>
<path d="M0 0 C-2.35277269 2.72426311 -4.62496331 3.8141763 -8 5 C-8 3.68 -8 2.36 -8 1 C-5.29120665 -0.35439668 -2.99066732 -0.06501451 0 0 Z " fill="#ED877F" transform="translate(360,459)"/>
<path d="M0 0 C1.65 1.65 3.3 3.3 5 5 C4.67 5.66 4.34 6.32 4 7 C2.35 6.67 0.7 6.34 -1 6 C-0.67 4.02 -0.34 2.04 0 0 Z " fill="#F28780" transform="translate(413,102)"/>
<path d="M0 0 C3.91211733 1.15585285 6.8745041 2.35534962 10 5 C9.01 5.33 8.02 5.66 7 6 C7 5.34 7 4.68 7 4 C6.236875 4.061875 5.47375 4.12375 4.6875 4.1875 C2 4 2 4 0.1875 2.5 C-0.4003125 1.7575 -0.4003125 1.7575 -1 1 C-0.67 0.67 -0.34 0.34 0 0 Z " fill="#EF9590" transform="translate(330,33)"/>
<path d="M0 0 C0.33 0 0.66 0 1 0 C1 2.64 1 5.28 1 8 C-0.98 8.99 -0.98 8.99 -3 10 C-2.01 6.7 -1.02 3.4 0 0 Z " fill="#EF938C" transform="translate(58,144)"/>
<path d="M0 0 C0.33 0.99 0.66 1.98 1 3 C3.00016466 4.20882096 3.00016466 4.20882096 5 5 C4.67 6.32 4.34 7.64 4 9 C2.35 6.69 0.7 4.38 -1 2 C-0.67 1.34 -0.34 0.68 0 0 Z " fill="#EE928A" transform="translate(78,413)"/>
<path d="M0 0 C2.29633824 3.44450737 2.54016485 5.93812283 3 10 C2.01 9.67 1.02 9.34 0 9 C0 6.03 0 3.06 0 0 Z " fill="#F19392" transform="translate(450,175)"/>
<path d="M0 0 C2.31 1.98 4.62 3.96 7 6 C6.01 6.33 5.02 6.66 4 7 C1 5 1 5 0.3125 2.375 C0.209375 1.59125 0.10625 0.8075 0 0 Z " fill="#EF9D9A" transform="translate(386,70)"/>
<path d="M0 0 C3.36720387 1.39332574 4.9859524 2.9789286 7 6 C4 6 4 6 1.8125 4.125 C0 2 0 2 0 0 Z " fill="#ED918C" transform="translate(374,60)"/>
<path d="M0 0 C3.91402949 1.26941497 5.79072873 2.51167694 8 6 C7.01 6 6.02 6 5 6 C5 5.34 5 4.68 5 4 C4.360625 3.896875 3.72125 3.79375 3.0625 3.6875 C2.381875 3.460625 1.70125 3.23375 1 3 C0.67 2.01 0.34 1.02 0 0 Z " fill="#EE958D" transform="translate(366,54)"/>
<path d="M0 0 C0.33 0.66 0.66 1.32 1 2 C1.66 2 2.32 2 3 2 C3 2.66 3 3.32 3 4 C3.99 4.33 4.98 4.66 6 5 C5.67 6.32 5.34 7.64 5 9 C3.02 6.36 1.04 3.72 -1 1 C-0.67 0.67 -0.34 0.34 0 0 Z " fill="#EE918B" transform="translate(91,430)"/>
<path d="M0 0 C2.64752004 2.57784846 4.94432065 4.91648098 7 8 C5.125 7.6875 5.125 7.6875 3 7 C1.25372522 4.38058783 0.61277612 2.96175123 0 0 Z " fill="#EE9B98" transform="translate(393,77)"/>
<path d="M0 0 C2.31 0.33 4.62 0.66 7 1 C6.67 2.32 6.34 3.64 6 5 C3.98079663 3.69593116 1.98075027 2.36176581 0 1 C0 0.67 0 0.34 0 0 Z " fill="#EE8C84" transform="translate(101,443)"/>
<path d="M0 0 C2.5 2.3125 2.5 2.3125 5 5 C5 5.99 5 6.98 5 8 C3.0625 7.375 3.0625 7.375 1 6 C0.25 2.875 0.25 2.875 0 0 Z " fill="#EF8F8B" transform="translate(400,85)"/>
<path d="" fill="#FFFFFF" transform="translate(0,0)"/>
<path d="" fill="#FFFFFF" transform="translate(0,0)"/>
<path d="" fill="#FFFFFF" transform="translate(0,0)"/>
<path d="" fill="#FFFFFF" transform="translate(0,0)"/>
<path d="" fill="#FFFFFF" transform="translate(0,0)"/>
<path d="" fill="#FFFFFF" transform="translate(0,0)"/>
<path d="" fill="#FFFFFF" transform="translate(0,0)"/>
<path d="" fill="#FFFFFF" transform="translate(0,0)"/>
<path d="" fill="#FFFFFF" transform="translate(0,0)"/>
<path d="" fill="#FFFFFF" transform="translate(0,0)"/>
<path d="" fill="#FFFFFF" transform="translate(0,0)"/>
<path d="" fill="#FFFFFF" transform="translate(0,0)"/>
<path d="" fill="#FFFFFF" transform="translate(0,0)"/>
<path d="" fill="#FFFFFF" transform="translate(0,0)"/>
<path d="" fill="#FFFFFF" transform="translate(0,0)"/>
<path d="" fill="#FFFFFF" transform="translate(0,0)"/>
<path d="" fill="#FFFFFF" transform="translate(0,0)"/>
<path d="" fill="#FFFFFF" transform="translate(0,0)"/>
<path d="" fill="#FFFFFF" transform="translate(0,0)"/>
<path d="" fill="#FFFFFF" transform="translate(0,0)"/>
<path d="" fill="#FFFFFF" transform="translate(0,0)"/>
<path d="" fill="#FFFFFF" transform="translate(0,0)"/>
<path d="" fill="#FFFFFF" transform="translate(0,0)"/>
<path d="" fill="#FFFFFF" transform="translate(0,0)"/>
<path d="" fill="#FFFFFF" transform="translate(0,0)"/>
<path d="" fill="#FFFFFF" transform="translate(0,0)"/>
<path d="" fill="#FFFFFF" transform="translate(0,0)"/>
<path d="" fill="#FFFFFF" transform="translate(0,0)"/>
<path d="" fill="#FFFFFF" transform="translate(0,0)"/>
<path d="" fill="#FFFFFF" transform="translate(0,0)"/>
<path d="" fill="#FFFFFF" transform="translate(0,0)"/>
<path d="" fill="#FFFFFF" transform="translate(0,0)"/>
<path d="" fill="#FFFFFF" transform="translate(0,0)"/>
<path d="" fill="#FFFFFF" transform="translate(0,0)"/>
<path d="" fill="#FFFFFF" transform="translate(0,0)"/>
<path d="" fill="#FFFFFF" transform="translate(0,0)"/>
</svg>
