<?xml version="1.0" encoding="UTF-8"?>
<!DOCTYPE svg PUBLIC "-//W3C//DTD SVG 1.1//EN" "http://www.w3.org/Graphics/SVG/1.1/DTD/svg11.dtd">
<svg xmlns="http://www.w3.org/2000/svg" version="1.1" width="500px" height="500px" style="shape-rendering:geometricPrecision; text-rendering:geometricPrecision; image-rendering:optimizeQuality; fill-rule:evenodd; clip-rule:evenodd" xmlns:xlink="http://www.w3.org/1999/xlink">
<g><path style="opacity:0.247" fill="#fef9bb" d="M 233.5,42.5 C 212.327,42.1694 191.327,42.5027 170.5,43.5C 168.5,43.5 166.5,43.5 164.5,43.5C 163.5,43.5 162.5,43.5 161.5,43.5C 163.631,42.6862 165.964,42.1862 168.5,42C 190.337,41.1705 212.004,41.3372 233.5,42.5 Z"/></g>
<g><path style="opacity:1" fill="#f8e592" d="M 170.5,43.5 C 191.327,42.5027 212.327,42.1694 233.5,42.5C 240.662,43.1681 244.162,47.1681 244,54.5C 244.667,70.1667 244.667,85.8333 244,101.5C 243.956,109.209 240.123,113.375 232.5,114C 220.833,114.333 209.167,114.667 197.5,115C 193.068,115.867 188.735,117.034 184.5,118.5C 184.511,116.983 185.177,115.816 186.5,115C 189.833,114.333 193.167,113.667 196.5,113C 208.833,112.667 221.167,112.333 233.5,112C 237.657,111.508 240.491,109.342 242,105.5C 242.667,87.8333 242.667,70.1667 242,52.5C 241.757,48.2897 239.59,45.623 235.5,44.5C 213.844,43.5003 192.177,43.167 170.5,43.5 Z"/></g>
<g><path style="opacity:0.858" fill="#c2c2c2" d="M 401.5,33.5 C 413.076,32.6672 416.909,37.6672 413,48.5C 409.354,53.0191 404.854,53.8524 399.5,51C 399.043,50.586 398.709,50.086 398.5,49.5C 400.014,44.2631 401.014,38.9298 401.5,33.5 Z M 404.5,36.5 C 411.541,37.4294 413.374,41.0961 410,47.5C 407.052,50.3029 404.552,49.9695 402.5,46.5C 403.297,43.1796 403.964,39.8462 404.5,36.5 Z"/></g>
<g><path style="opacity:0.85" fill="#bfbfbf" d="M 376.5,35.5 C 378.792,35.2436 380.959,35.5769 383,36.5C 384.126,40.5248 385.626,44.3581 387.5,48C 387.561,49.7106 386.894,51.044 385.5,52C 382.689,52.911 379.856,53.7443 377,54.5C 374.309,49.9371 372.475,44.9371 371.5,39.5C 372.662,37.4616 374.328,36.1282 376.5,35.5 Z M 376.5,38.5 C 383.103,39.6846 383.103,41.3512 376.5,43.5C 374.016,41.6308 374.016,39.9641 376.5,38.5 Z M 381.5,44.5 C 383.727,45.4006 384.727,47.0672 384.5,49.5C 382.194,49.9926 379.861,50.3259 377.5,50.5C 377.67,49.1779 377.337,48.0113 376.5,47C 378.175,46.0147 379.842,45.1814 381.5,44.5 Z"/></g>
<g><path style="opacity:1" fill="#fede59" d="M 164.5,43.5 C 166.5,43.5 168.5,43.5 170.5,43.5C 192.177,43.167 213.844,43.5003 235.5,44.5C 239.59,45.623 241.757,48.2897 242,52.5C 242.667,70.1667 242.667,87.8333 242,105.5C 240.491,109.342 237.657,111.508 233.5,112C 221.167,112.333 208.833,112.667 196.5,113C 193.167,113.667 189.833,114.333 186.5,115C 185.177,115.816 184.511,116.983 184.5,118.5C 184.5,119.167 184.167,119.5 183.5,119.5C 179.71,120.291 177.71,122.624 177.5,126.5C 176.5,126.5 175.5,126.5 174.5,126.5C 174.852,129.073 174.352,131.406 173,133.5C 172.765,162.179 172.265,190.846 171.5,219.5C 169.265,223.101 167.932,227.101 167.5,231.5C 165.856,231.81 164.856,232.81 164.5,234.5C 162.712,234.215 161.045,234.548 159.5,235.5C 159.931,236.293 160.265,237.127 160.5,238C 159.293,239.3 158.626,240.8 158.5,242.5C 155.74,243.569 152.907,244.569 150,245.5C 148.869,244.396 148.035,244.729 147.5,246.5C 148.025,247.192 148.692,247.692 149.5,248C 144.909,249.813 140.242,251.313 135.5,252.5C 135.5,253.5 135.5,254.5 135.5,255.5C 136.5,255.5 137.5,255.5 138.5,255.5C 145.407,258.287 152.073,261.62 158.5,265.5C 158.833,265.5 159.167,265.5 159.5,265.5C 159.357,267.262 159.691,268.929 160.5,270.5C 164.598,275.04 167.931,280.04 170.5,285.5C 171.434,286.568 171.768,287.901 171.5,289.5C 171.085,319.192 171.585,348.858 173,378.5C 174.953,380.841 176.119,383.507 176.5,386.5C 179.038,387.043 181.372,388.043 183.5,389.5C 183.5,390.5 183.5,391.5 183.5,392.5C 196.986,395.15 210.653,396.15 224.5,395.5C 229.606,396.013 234.606,397.346 239.5,399.5C 240.584,400.665 241.417,401.998 242,403.5C 242.667,421.5 242.667,439.5 242,457.5C 240.872,459.345 240.372,461.345 240.5,463.5C 238.571,463.231 236.905,463.731 235.5,465C 212.167,465.667 188.833,465.667 165.5,465C 160.416,463.043 155.082,462.21 149.5,462.5C 146.212,459.359 142.212,457.692 137.5,457.5C 133.495,456.502 130.161,454.502 127.5,451.5C 126.415,449.413 124.749,448.08 122.5,447.5C 121.167,446.833 120.167,445.833 119.5,444.5C 118.19,441.527 116.19,439.193 113.5,437.5C 112.5,434.167 111.5,430.833 110.5,427.5C 109.325,427.719 108.325,427.386 107.5,426.5C 106.524,423.837 105.19,421.504 103.5,419.5C 103.048,415.837 102.548,412.17 102,408.5C 101.329,407.748 100.496,407.414 99.5,407.5C 99.5,407.167 99.5,406.833 99.5,406.5C 98.7217,375.847 98.2217,345.181 98,314.5C 96.9562,312.285 96.2895,309.952 96,307.5C 95.2597,305.681 94.0931,304.348 92.5,303.5C 92.6308,300.633 91.2974,298.967 88.5,298.5C 87.7377,296.738 86.4044,295.738 84.5,295.5C 84.0472,294.542 83.3805,293.708 82.5,293C 79.5219,292.304 76.5219,291.804 73.5,291.5C 71.7078,290.691 69.7078,290.191 67.5,290C 58.5062,289.5 49.5062,289.334 40.5,289.5C 38.1468,288.135 36.4801,286.135 35.5,283.5C 34.5266,265.547 34.1932,247.547 34.5,229.5C 34.7959,227.597 35.4625,225.93 36.5,224.5C 38.5441,223.969 40.2107,222.802 41.5,221C 52.5,220.667 63.5,220.333 74.5,220C 75.056,219.617 75.3893,219.117 75.5,218.5C 78.1709,216.882 81.1709,216.215 84.5,216.5C 84.5,215.5 84.5,214.5 84.5,213.5C 84.9731,212.094 85.9731,211.427 87.5,211.5C 92.9561,208.497 95.6228,203.83 95.5,197.5C 96.3149,196.571 97.1482,195.571 98,194.5C 98.2295,163.488 98.7295,132.488 99.5,101.5C 102.716,93.5056 106.55,85.839 111,78.5C 111.49,77.2068 111.657,75.8734 111.5,74.5C 116.269,69.2286 121.269,64.062 126.5,59C 127.793,58.51 129.127,58.3433 130.5,58.5C 130.5,57.5 130.5,56.5 130.5,55.5C 131.873,55.6567 133.207,55.49 134.5,55C 137.416,52.5601 140.416,50.3935 143.5,48.5C 143.842,47.6618 144.508,47.3284 145.5,47.5C 152.196,47.2955 158.529,45.9621 164.5,43.5 Z"/></g>
<g><path style="opacity:1" fill="#fae690" d="M 161.5,43.5 C 162.5,43.5 163.5,43.5 164.5,43.5C 158.529,45.9621 152.196,47.2955 145.5,47.5C 150.497,45.2507 155.83,43.9174 161.5,43.5 Z"/></g>
<g><path style="opacity:0.853" fill="#c0c0c0" d="M 422.5,39.5 C 426.905,40.2017 430.572,42.2017 433.5,45.5C 432.833,45.8333 432.167,46.1667 431.5,46.5C 429.429,45.3825 427.262,44.3825 425,43.5C 423.831,44.0085 422.998,44.8419 422.5,46C 425.312,46.946 427.645,48.6127 429.5,51C 428.975,51.6924 428.308,52.1924 427.5,52.5C 425.5,51.5 423.5,50.5 421.5,49.5C 420.05,50.8498 419.383,52.5165 419.5,54.5C 422.358,54.5954 424.691,55.7621 426.5,58C 425.874,58.7504 425.374,59.5838 425,60.5C 421.249,58.7092 417.749,56.5426 414.5,54C 417.572,49.3534 420.238,44.5201 422.5,39.5 Z"/></g>
<g><path style="opacity:0.992" fill="#f8e896" d="M 143.5,48.5 C 140.416,50.3935 137.416,52.5601 134.5,55C 133.207,55.49 131.873,55.6567 130.5,55.5C 134.091,51.9356 138.425,49.6023 143.5,48.5 Z"/></g>
<g><path style="opacity:0.914" fill="#bfbfbf" d="M 361.5,41.5 C 362.995,41.4148 363.995,42.0815 364.5,43.5C 362.334,45.4933 360.001,47.3267 357.5,49C 358.313,50.8847 359.647,51.5513 361.5,51C 363.09,49.9542 364.59,48.7875 366,47.5C 366.692,48.0253 367.192,48.6919 367.5,49.5C 365.731,51.557 363.731,53.3903 361.5,55C 362.399,56.2362 363.566,57.0696 365,57.5C 367.155,56.4208 369.155,55.0874 371,53.5C 371.692,54.0253 372.192,54.6919 372.5,55.5C 369.81,58.1846 366.81,60.5179 363.5,62.5C 359.811,58.1352 356.478,53.4685 353.5,48.5C 356.186,46.1442 358.853,43.8109 361.5,41.5 Z"/></g>
<g><path style="opacity:0.933" fill="#fae999" d="M 130.5,55.5 C 130.5,56.5 130.5,57.5 130.5,58.5C 129.127,58.3433 127.793,58.51 126.5,59C 121.269,64.062 116.269,69.2286 111.5,74.5C 116.167,66.5 122.5,60.1667 130.5,55.5 Z"/></g>
<g><path style="opacity:0.89" fill="#c0c0c0" d="M 438.5,49.5 C 439.756,49.4614 440.756,49.9614 441.5,51C 438.907,55.0012 437.074,59.1679 436,63.5C 439.649,61.8372 443.316,60.1705 447,58.5C 448.059,58.6301 448.892,59.1301 449.5,60C 443.949,63.7348 437.949,66.0681 431.5,67C 430.483,65.9505 430.316,64.7839 431,63.5C 433.767,58.9654 436.267,54.2987 438.5,49.5 Z"/></g>
<g><path style="opacity:0.761" fill="#c4c4c4" d="M 346.5,53.5 C 352.195,57.3255 356.028,62.3255 358,68.5C 357.275,69.0585 356.442,69.3918 355.5,69.5C 353.49,68.6379 351.49,68.1379 349.5,68C 351.543,69.708 353.21,71.708 354.5,74C 353.299,74.9025 352.465,76.0692 352,77.5C 346.646,75.0716 341.146,73.0716 335.5,71.5C 335.5,70.5 335.5,69.5 335.5,68.5C 339.475,69.6636 343.475,70.4969 347.5,71C 344.112,68.4687 341.779,65.302 340.5,61.5C 345.071,62.1968 349.404,63.3635 353.5,65C 350.628,62.4634 348.128,59.6301 346,56.5C 345.53,55.4232 345.697,54.4232 346.5,53.5 Z"/></g>
<g><path style="opacity:0.899" fill="#c5c5c5" d="M 452.5,66.5 C 453.376,66.3691 454.043,66.7025 454.5,67.5C 456.018,70.8361 457.185,74.1694 458,77.5C 457.107,78.7112 456.274,78.7112 455.5,77.5C 454.806,74.9124 453.64,72.579 452,70.5C 451.075,71.0465 450.242,71.7132 449.5,72.5C 451.997,82.8006 450.83,83.1339 446,73.5C 444.243,74.1189 443.076,75.2856 442.5,77C 443.363,79.2265 444.363,81.3932 445.5,83.5C 444.635,84.5827 443.635,84.7494 442.5,84C 440.562,80.7905 438.895,77.4572 437.5,74C 442.84,71.9968 447.84,69.4968 452.5,66.5 Z"/></g>
<g><path style="opacity:0.92" fill="#c6c6c6" d="M 457.5,85.5 C 459.346,85.2222 460.68,85.8888 461.5,87.5C 456.98,89.1426 452.313,90.1426 447.5,90.5C 447.5,93.5 447.5,96.5 447.5,99.5C 446.5,99.5 445.5,99.5 444.5,99.5C 444.167,95.5 443.833,91.5 443.5,87.5C 448.391,87.4681 453.057,86.8015 457.5,85.5 Z"/></g>
<g><path style="opacity:1" fill="#f9e38a" d="M 111.5,74.5 C 111.657,75.8734 111.49,77.2068 111,78.5C 106.55,85.839 102.716,93.5056 99.5,101.5C 101.087,91.335 105.087,82.335 111.5,74.5 Z"/></g>
<g><path style="opacity:0.744" fill="#f1958f" d="M 392.5,103.5 C 374.693,102.201 357.027,102.201 339.5,103.5C 336.833,103.5 334.167,103.5 331.5,103.5C 333.292,102.691 335.292,102.191 337.5,102C 355.167,101.333 372.833,101.333 390.5,102C 391.416,102.278 392.082,102.778 392.5,103.5 Z"/></g>
<g><path style="opacity:1" fill="#ee6961" d="M 339.5,103.5 C 357.027,102.201 374.693,102.201 392.5,103.5C 394.262,104.262 395.262,105.596 395.5,107.5C 395.829,120.344 395.495,133.011 394.5,145.5C 394.832,132.816 394.499,120.149 393.5,107.5C 391.624,106.125 389.624,104.958 387.5,104C 371.503,103.5 355.503,103.333 339.5,103.5 Z"/></g>
<g><path style="opacity:0.929" fill="#c1c1c1" d="M 445.5,101.5 C 450.607,101.685 455.607,102.518 460.5,104C 461.574,104.739 462.241,105.739 462.5,107C 461.839,109.464 461.339,111.964 461,114.5C 459.701,115.98 458.034,116.646 456,116.5C 452.5,116 449,115.5 445.5,115C 444.056,113.874 443.39,112.374 443.5,110.5C 443.918,107.404 444.585,104.404 445.5,101.5 Z M 448.5,104.5 C 451.912,105.013 455.245,105.847 458.5,107C 458.784,108.956 458.784,111.123 458.5,113.5C 454.694,113.588 451.027,112.921 447.5,111.5C 446.328,108.995 446.662,106.661 448.5,104.5 Z"/></g>
<g><path style="opacity:0.984" fill="#e9938f" d="M 331.5,103.5 C 329.485,104.924 327.152,105.59 324.5,105.5C 326.515,104.076 328.848,103.41 331.5,103.5 Z"/></g>
<g><path style="opacity:0.976" fill="#eda399" d="M 323.5,105.5 C 321.967,107.245 319.967,108.245 317.5,108.5C 319.033,106.755 321.033,105.755 323.5,105.5 Z"/></g>
<g><path style="opacity:1" fill="#f86559" d="M 331.5,103.5 C 334.167,103.5 336.833,103.5 339.5,103.5C 355.503,103.333 371.503,103.5 387.5,104C 389.624,104.958 391.624,106.125 393.5,107.5C 394.499,120.149 394.832,132.816 394.5,145.5C 394.307,148.308 393.64,150.975 392.5,153.5C 389.545,154.159 386.545,154.492 383.5,154.5C 371.548,153.702 359.881,154.702 348.5,157.5C 348.5,158.833 348.5,160.167 348.5,161.5C 347.178,161.67 346.011,161.337 345,160.5C 344.5,161 344,161.5 343.5,162C 345.426,162.422 346.426,163.589 346.5,165.5C 346.672,166.492 346.338,167.158 345.5,167.5C 344.207,168.842 343.374,170.509 343,172.5C 342.753,194.181 342.253,215.848 341.5,237.5C 341.5,238.167 341.5,238.833 341.5,239.5C 340.167,239.5 338.833,239.5 337.5,239.5C 337.785,241.288 337.452,242.955 336.5,244.5C 335.325,243.145 334.325,243.312 333.5,245C 334.747,246.494 334.747,247.994 333.5,249.5C 332.549,248.674 331.549,248.508 330.5,249C 331.337,250.011 331.67,251.178 331.5,252.5C 330.5,252.5 329.5,252.5 328.5,252.5C 328.5,253.5 328.5,254.5 328.5,255.5C 327.486,256.674 326.153,257.34 324.5,257.5C 321.478,257.804 318.478,258.304 315.5,259C 314.549,259.718 314.383,260.551 315,261.5C 320.994,263.401 326.828,265.734 332.5,268.5C 333.833,269.167 334.833,270.167 335.5,271.5C 335.5,272.167 335.5,272.833 335.5,273.5C 336.136,275.795 337.469,277.461 339.5,278.5C 339.59,280.696 339.923,282.863 340.5,285C 340.684,286.376 341.351,287.209 342.5,287.5C 342.5,287.833 342.5,288.167 342.5,288.5C 342.333,307.503 342.5,326.503 343,345.5C 343.481,349.531 344.147,353.531 345,357.5C 345.671,358.252 346.504,358.586 347.5,358.5C 347.727,360.997 349.06,362.664 351.5,363.5C 354.654,365.026 357.987,365.693 361.5,365.5C 362.167,365.5 362.833,365.5 363.5,365.5C 373.01,366.303 382.677,366.97 392.5,367.5C 392.833,368.833 393.167,370.167 393.5,371.5C 394.784,386.146 394.784,400.813 393.5,415.5C 391.78,416.934 389.78,417.767 387.5,418C 370.17,418.5 352.837,418.667 335.5,418.5C 333.265,418.795 331.265,418.461 329.5,417.5C 328.5,416.833 327.5,416.167 326.5,415.5C 324.622,414.792 322.955,413.626 321.5,412C 316.42,411.63 312.42,409.463 309.5,405.5C 307.589,404.523 305.589,403.857 303.5,403.5C 303.512,400.858 302.179,399.525 299.5,399.5C 299.5,399.167 299.5,398.833 299.5,398.5C 298.629,395.436 297.462,392.436 296,389.5C 295.124,387.365 293.624,386.031 291.5,385.5C 291.567,380.964 290.901,376.631 289.5,372.5C 288.698,350.197 288.198,327.864 288,305.5C 287.262,302.499 286.096,299.832 284.5,297.5C 282.566,295.062 280.4,292.729 278,290.5C 276.234,289.767 274.401,289.433 272.5,289.5C 272.196,288.85 271.863,288.183 271.5,287.5C 263.167,286.833 254.833,286.167 246.5,285.5C 244.977,283.717 242.977,283.051 240.5,283.5C 240.5,268.5 240.5,253.5 240.5,238.5C 243.028,237.977 245.361,236.977 247.5,235.5C 253.802,236.586 260.135,236.753 266.5,236C 269.969,235.465 272.969,234.298 275.5,232.5C 277.603,230.378 280.103,228.711 283,227.5C 285.105,224.893 285.938,221.893 285.5,218.5C 285.5,218.167 285.5,217.833 285.5,217.5C 285.833,217.5 286.167,217.5 286.5,217.5C 287.222,217.082 287.722,216.416 288,215.5C 288.5,195.503 288.667,175.503 288.5,155.5C 289.338,149.145 290.338,142.812 291.5,136.5C 291.796,134.597 292.463,132.93 293.5,131.5C 294.906,131.027 295.573,130.027 295.5,128.5C 296.906,128.027 297.573,127.027 297.5,125.5C 298.906,125.027 299.573,124.027 299.5,122.5C 299.833,121.5 300.5,120.833 301.5,120.5C 302.906,120.027 303.573,119.027 303.5,117.5C 305.027,117.573 306.027,116.906 306.5,115.5C 308.749,114.92 310.415,113.587 311.5,111.5C 313.848,111.408 315.514,110.408 316.5,108.5C 316.833,108.5 317.167,108.5 317.5,108.5C 319.967,108.245 321.967,107.245 323.5,105.5C 323.833,105.5 324.167,105.5 324.5,105.5C 327.152,105.59 329.485,104.924 331.5,103.5 Z"/></g>
<g><path style="opacity:0.827" fill="#f2a8a4" d="M 316.5,108.5 C 315.514,110.408 313.848,111.408 311.5,111.5C 312.659,109.75 314.326,108.75 316.5,108.5 Z"/></g>
<g><path style="opacity:0.98" fill="#ec948f" d="M 311.5,111.5 C 310.415,113.587 308.749,114.92 306.5,115.5C 307.585,113.413 309.251,112.08 311.5,111.5 Z"/></g>
<g><path style="opacity:0.8" fill="#e6948a" d="M 395.5,107.5 C 396.661,121.661 396.827,135.994 396,150.5C 395.167,152.667 393.667,154.167 391.5,155C 388.854,155.497 386.187,155.664 383.5,155.5C 383.5,155.167 383.5,154.833 383.5,154.5C 386.545,154.492 389.545,154.159 392.5,153.5C 393.64,150.975 394.307,148.308 394.5,145.5C 395.495,133.011 395.829,120.344 395.5,107.5 Z"/></g>
<g><path style="opacity:0.729" fill="#f1b4a7" d="M 306.5,115.5 C 306.027,116.906 305.027,117.573 303.5,117.5C 303.973,116.094 304.973,115.427 306.5,115.5 Z"/></g>
<g><path style="opacity:0.702" fill="#f6bcb9" d="M 303.5,117.5 C 303.573,119.027 302.906,120.027 301.5,120.5C 301.427,118.973 302.094,117.973 303.5,117.5 Z"/></g>
<g><path style="opacity:0.862" fill="#fbe491" d="M 99.5,101.5 C 98.7295,132.488 98.2295,163.488 98,194.5C 97.1482,195.571 96.3149,196.571 95.5,197.5C 96.065,192.851 96.565,188.184 97,183.5C 97.3333,158.167 97.6667,132.833 98,107.5C 98.1909,105.292 98.6909,103.292 99.5,101.5 Z"/></g>
<g><path style="opacity:0.608" fill="#fbecac" d="M 183.5,119.5 C 181.471,121.858 179.471,124.192 177.5,126.5C 177.71,122.624 179.71,120.291 183.5,119.5 Z"/></g>
<g><path style="opacity:0.541" fill="#f4baad" d="M 299.5,122.5 C 299.573,124.027 298.906,125.027 297.5,125.5C 297.427,123.973 298.094,122.973 299.5,122.5 Z"/></g>
<g><path style="opacity:0.722" fill="#bfbfbf" d="M 441.5,117.5 C 446.97,120.068 452.303,122.902 457.5,126C 456.039,128.421 454.706,130.921 453.5,133.5C 448.447,135.305 444.78,133.805 442.5,129C 443.627,127.247 444.627,125.413 445.5,123.5C 444.086,122.376 442.586,121.376 441,120.5C 440.53,119.423 440.697,118.423 441.5,117.5 Z M 448.5,124.5 C 450.14,125.32 451.807,126.153 453.5,127C 451.581,132.441 449.247,132.774 446.5,128C 446.978,126.697 447.645,125.531 448.5,124.5 Z"/></g>
<g><path style="opacity:0.875" fill="#f0ac9c" d="M 297.5,125.5 C 297.573,127.027 296.906,128.027 295.5,128.5C 295.427,126.973 296.094,125.973 297.5,125.5 Z"/></g>
<g><path style="opacity:0.408" fill="#f9c4be" d="M 295.5,128.5 C 295.573,130.027 294.906,131.027 293.5,131.5C 293.427,129.973 294.094,128.973 295.5,128.5 Z"/></g>
<g><path style="opacity:0.996" fill="#ea8981" d="M 291.5,136.5 C 290.338,142.812 289.338,149.145 288.5,155.5C 288.167,155.5 287.833,155.5 287.5,155.5C 287.5,154.167 287.5,152.833 287.5,151.5C 287.451,146.023 288.784,141.023 291.5,136.5 Z"/></g>
<g><path style="opacity:0.865" fill="#c3c3c3" d="M 433.5,130.5 C 438.419,133.748 442.753,137.748 446.5,142.5C 444.161,145.339 441.661,148.005 439,150.5C 437.941,150.37 437.108,149.87 436.5,149C 438.5,147 440.5,145 442.5,143C 441.667,142.167 440.833,141.333 440,140.5C 438.26,142.954 436.093,144.454 433.5,145C 432.549,144.282 432.383,143.449 433,142.5C 434.5,141 436,139.5 437.5,138C 436.328,135.945 434.661,135.278 432.5,136C 431.183,139.335 429.183,140.335 426.5,139C 428.654,136.013 430.987,133.18 433.5,130.5 Z"/></g>
<g><path style="opacity:0.466" fill="#fdeda0" d="M 177.5,126.5 C 175.713,130.98 174.547,135.647 174,140.5C 173.667,164.833 173.333,189.167 173,213.5C 172.809,215.708 172.309,217.708 171.5,219.5C 172.265,190.846 172.765,162.179 173,133.5C 174.352,131.406 174.852,129.073 174.5,126.5C 175.5,126.5 176.5,126.5 177.5,126.5 Z"/></g>
<g><path style="opacity:1" fill="#ed867b" d="M 383.5,154.5 C 383.5,154.833 383.5,155.167 383.5,155.5C 373.76,155.308 364.094,155.975 354.5,157.5C 352.973,157.427 351.973,158.094 351.5,159.5C 349.804,161.525 348.137,163.525 346.5,165.5C 346.426,163.589 345.426,162.422 343.5,162C 344,161.5 344.5,161 345,160.5C 346.011,161.337 347.178,161.67 348.5,161.5C 348.5,160.167 348.5,158.833 348.5,157.5C 359.881,154.702 371.548,153.702 383.5,154.5 Z"/></g>
<g><path style="opacity:0.004" fill="#fcd9d9" d="M 354.5,157.5 C 354.027,158.906 353.027,159.573 351.5,159.5C 351.973,158.094 352.973,157.427 354.5,157.5 Z"/></g>
<g><path style="opacity:0.859" fill="#c1c1c1" d="M 422.5,140.5 C 423.496,140.414 424.329,140.748 425,141.5C 426.963,146.286 429.13,150.953 431.5,155.5C 422.789,163.466 417.956,161.799 417,150.5C 415.028,149.695 413.528,148.361 412.5,146.5C 413.723,145.386 415.056,145.219 416.5,146C 418.832,149.424 421.165,149.757 423.5,147C 421.965,144.859 421.631,142.692 422.5,140.5 Z M 423.5,150.5 C 428.788,153.11 428.622,155.444 423,157.5C 419.554,154.712 419.721,152.379 423.5,150.5 Z"/></g>
<g><path style="opacity:1" fill="#e76b63" d="M 287.5,155.5 C 287.833,155.5 288.167,155.5 288.5,155.5C 288.667,175.503 288.5,195.503 288,215.5C 287.722,216.416 287.222,217.082 286.5,217.5C 287.454,196.86 287.787,176.193 287.5,155.5 Z"/></g>
<g><path style="opacity:0.824" fill="#eb8c86" d="M 345.5,167.5 C 344.955,170.813 344.455,174.146 344,177.5C 343.667,196.167 343.333,214.833 343,233.5C 342.79,235.058 342.29,236.391 341.5,237.5C 342.253,215.848 342.753,194.181 343,172.5C 343.374,170.509 344.207,168.842 345.5,167.5 Z"/></g>
<g><path style="opacity:0.532" fill="#f2acaa" d="M 287.5,151.5 C 287.5,152.833 287.5,154.167 287.5,155.5C 287.787,176.193 287.454,196.86 286.5,217.5C 286.167,217.5 285.833,217.5 285.5,217.5C 286.112,195.349 286.779,173.349 287.5,151.5 Z"/></g>
<g><path style="opacity:0.965" fill="#fae8a0" d="M 95.5,197.5 C 95.6228,203.83 92.9561,208.497 87.5,211.5C 91.2216,207.385 93.8883,202.718 95.5,197.5 Z"/></g>
<g><path style="opacity:0.98" fill="#f9e68e" d="M 84.5,213.5 C 84.5,214.5 84.5,215.5 84.5,216.5C 81.1709,216.215 78.1709,216.882 75.5,218.5C 74.1667,218.5 72.8333,218.5 71.5,218.5C 71.5,218.167 71.5,217.833 71.5,217.5C 75.9239,216.454 80.2572,215.121 84.5,213.5 Z"/></g>
<g><path style="opacity:0.498" fill="#faeeb4" d="M 71.5,217.5 C 71.5,217.833 71.5,218.167 71.5,218.5C 61.9162,219.473 52.2496,219.806 42.5,219.5C 52.0101,218.697 61.6768,218.03 71.5,217.5 Z"/></g>
<g><path style="opacity:1" fill="#f6de6e" d="M 71.5,218.5 C 72.8333,218.5 74.1667,218.5 75.5,218.5C 75.3893,219.117 75.056,219.617 74.5,220C 63.5,220.333 52.5,220.667 41.5,221C 40.2107,222.802 38.5441,223.969 36.5,224.5C 37.5,223.167 38.5,221.833 39.5,220.5C 40.209,219.596 41.209,219.263 42.5,219.5C 52.2496,219.806 61.9162,219.473 71.5,218.5 Z"/></g>
<g><path style="opacity:1" fill="#fae896" d="M 171.5,219.5 C 171.541,224.044 170.208,228.044 167.5,231.5C 167.932,227.101 169.265,223.101 171.5,219.5 Z"/></g>
<g><path style="opacity:1" fill="#e98a81" d="M 285.5,218.5 C 285.938,221.893 285.105,224.893 283,227.5C 280.103,228.711 277.603,230.378 275.5,232.5C 272.904,233.265 270.237,233.599 267.5,233.5C 275.96,231.367 281.96,226.367 285.5,218.5 Z"/></g>
<g><path style="opacity:0.996" fill="#fae9a2" d="M 167.5,231.5 C 166.921,234.331 165.588,236.664 163.5,238.5C 163.833,237.167 164.167,235.833 164.5,234.5C 164.856,232.81 165.856,231.81 167.5,231.5 Z"/></g>
<g><path style="opacity:1" fill="#f5de76" d="M 34.5,229.5 C 34.1932,247.547 34.5266,265.547 35.5,283.5C 34.8333,283.5 34.1667,283.5 33.5,283.5C 33.5,282.167 33.5,280.833 33.5,279.5C 33.1702,262.658 33.5035,245.992 34.5,229.5 Z"/></g>
<g><path style="opacity:0.303" fill="#fef3bd" d="M 39.5,220.5 C 38.5,221.833 37.5,223.167 36.5,224.5C 35.4625,225.93 34.7959,227.597 34.5,229.5C 33.5035,245.992 33.1702,262.658 33.5,279.5C 32.3383,262.672 32.1716,245.672 33,228.5C 33.5761,224.434 35.7427,221.767 39.5,220.5 Z"/></g>
<g><path style="opacity:1" fill="#ec8178" d="M 275.5,232.5 C 272.969,234.298 269.969,235.465 266.5,236C 260.135,236.753 253.802,236.586 247.5,235.5C 245.361,236.977 243.028,237.977 240.5,238.5C 240.5,253.5 240.5,268.5 240.5,283.5C 242.977,283.051 244.977,283.717 246.5,285.5C 254.833,286.167 263.167,286.833 271.5,287.5C 271.863,288.183 272.196,288.85 272.5,289.5C 264.192,288.795 255.859,288.295 247.5,288C 243.562,287.786 240.728,285.953 239,282.5C 238.033,267.407 238.367,252.407 240,237.5C 241.319,235.513 243.152,234.346 245.5,234C 252.826,233.5 260.159,233.334 267.5,233.5C 270.237,233.599 272.904,233.265 275.5,232.5 Z"/></g>
<g><path style="opacity:1" fill="#f2867f" d="M 341.5,239.5 C 339.317,246.673 334.984,252.007 328.5,255.5C 328.5,254.5 328.5,253.5 328.5,252.5C 329.5,252.5 330.5,252.5 331.5,252.5C 331.67,251.178 331.337,250.011 330.5,249C 331.549,248.508 332.549,248.674 333.5,249.5C 334.747,247.994 334.747,246.494 333.5,245C 334.325,243.312 335.325,243.145 336.5,244.5C 337.452,242.955 337.785,241.288 337.5,239.5C 338.833,239.5 340.167,239.5 341.5,239.5 Z"/></g>
<g><path style="opacity:1" fill="#fae37d" d="M 164.5,234.5 C 164.167,235.833 163.833,237.167 163.5,238.5C 159.113,245.534 152.78,249.867 144.5,251.5C 142.447,251.402 140.78,252.069 139.5,253.5C 138.662,253.842 138.328,254.508 138.5,255.5C 137.5,255.5 136.5,255.5 135.5,255.5C 135.5,254.5 135.5,253.5 135.5,252.5C 140.242,251.313 144.909,249.813 149.5,248C 148.692,247.692 148.025,247.192 147.5,246.5C 148.035,244.729 148.869,244.396 150,245.5C 152.907,244.569 155.74,243.569 158.5,242.5C 158.626,240.8 159.293,239.3 160.5,238C 160.265,237.127 159.931,236.293 159.5,235.5C 161.045,234.548 162.712,234.215 164.5,234.5 Z"/></g>
<g><path style="opacity:0.2" fill="#fdf5c0" d="M 144.5,251.5 C 143.22,252.931 141.553,253.598 139.5,253.5C 140.78,252.069 142.447,251.402 144.5,251.5 Z"/></g>
<g><path style="opacity:0.698" fill="#fbeda7" d="M 138.5,255.5 C 146.295,256.731 152.962,260.064 158.5,265.5C 152.073,261.62 145.407,258.287 138.5,255.5 Z"/></g>
<g><path style="opacity:0.98" fill="#ef978e" d="M 324.5,257.5 C 322.402,258.935 320.069,260.102 317.5,261C 323.389,261.944 328.389,264.444 332.5,268.5C 326.828,265.734 320.994,263.401 315,261.5C 314.383,260.551 314.549,259.718 315.5,259C 318.478,258.304 321.478,257.804 324.5,257.5 Z"/></g>
<g><path style="opacity:0.718" fill="#f7c8bc" d="M 335.5,271.5 C 336.906,271.973 337.573,272.973 337.5,274.5C 336.833,274.167 336.167,273.833 335.5,273.5C 335.5,272.833 335.5,272.167 335.5,271.5 Z"/></g>
<g><path style="opacity:1" fill="#f9e58c" d="M 159.5,265.5 C 165.235,270.965 168.901,277.631 170.5,285.5C 167.931,280.04 164.598,275.04 160.5,270.5C 159.691,268.929 159.357,267.262 159.5,265.5 Z"/></g>
<g><path style="opacity:1" fill="#e6807c" d="M 335.5,273.5 C 336.167,273.833 336.833,274.167 337.5,274.5C 338.674,275.514 339.34,276.847 339.5,278.5C 337.469,277.461 336.136,275.795 335.5,273.5 Z"/></g>
<g><path style="opacity:1" fill="#e88a85" d="M 339.5,278.5 C 341.472,281.084 342.472,284.084 342.5,287.5C 341.351,287.209 340.684,286.376 340.5,285C 339.923,282.863 339.59,280.696 339.5,278.5 Z"/></g>
<g><path style="opacity:0.843" fill="#fbe79f" d="M 33.5,283.5 C 34.1667,283.5 34.8333,283.5 35.5,283.5C 36.4801,286.135 38.1468,288.135 40.5,289.5C 36.9326,288.932 34.5993,286.932 33.5,283.5 Z"/></g>
<g><path style="opacity:0.965" fill="#f7e7a5" d="M 40.5,289.5 C 49.5062,289.334 58.5062,289.5 67.5,290C 69.7078,290.191 71.7078,290.691 73.5,291.5C 62.3019,291.601 51.3019,290.934 40.5,289.5 Z"/></g>
<g><path style="opacity:0.91" fill="#fbeaa5" d="M 73.5,291.5 C 76.5219,291.804 79.5219,292.304 82.5,293C 83.3805,293.708 84.0472,294.542 84.5,295.5C 80.6052,294.538 76.9385,293.204 73.5,291.5 Z"/></g>
<g><path style="opacity:0.906" fill="#fdeeae" d="M 84.5,295.5 C 86.4044,295.738 87.7377,296.738 88.5,298.5C 86.5956,298.262 85.2623,297.262 84.5,295.5 Z"/></g>
<g><path style="opacity:1" fill="#f09d92" d="M 272.5,289.5 C 274.401,289.433 276.234,289.767 278,290.5C 280.4,292.729 282.566,295.062 284.5,297.5C 285.15,299.435 285.483,301.435 285.5,303.5C 283.257,296.922 278.923,292.256 272.5,289.5 Z"/></g>
<g><path style="opacity:0.961" fill="#fce9a0" d="M 88.5,298.5 C 91.2974,298.967 92.6308,300.633 92.5,303.5C 90.9373,302.055 89.604,300.389 88.5,298.5 Z"/></g>
<g><path style="opacity:0.821" fill="#ed8b84" d="M 342.5,288.5 C 343.332,306.662 343.832,324.995 344,343.5C 344.115,348.777 345.281,353.777 347.5,358.5C 346.504,358.586 345.671,358.252 345,357.5C 344.147,353.531 343.481,349.531 343,345.5C 342.5,326.503 342.333,307.503 342.5,288.5 Z"/></g>
<g><path style="opacity:1" fill="#ed847c" d="M 284.5,297.5 C 286.096,299.832 287.262,302.499 288,305.5C 288.198,327.864 288.698,350.197 289.5,372.5C 288.833,371.833 288.167,371.167 287.5,370.5C 286.778,348.223 286.111,325.89 285.5,303.5C 285.483,301.435 285.15,299.435 284.5,297.5 Z"/></g>
<g><path style="opacity:1" fill="#fae485" d="M 171.5,289.5 C 172.317,291.969 172.817,294.635 173,297.5C 173.333,321.167 173.667,344.833 174,368.5C 174.479,376.786 177.646,383.786 183.5,389.5C 181.372,388.043 179.038,387.043 176.5,386.5C 176.119,383.507 174.953,380.841 173,378.5C 171.585,348.858 171.085,319.192 171.5,289.5 Z"/></g>
<g><path style="opacity:0.861" fill="#fbe593" d="M 92.5,303.5 C 94.0931,304.348 95.2597,305.681 96,307.5C 96.2895,309.952 96.9562,312.285 98,314.5C 98.2217,345.181 98.7217,375.847 99.5,406.5C 98.6909,404.708 98.1909,402.708 98,400.5C 97.6667,375.5 97.3333,350.5 97,325.5C 96.7601,317.879 95.2601,310.546 92.5,303.5 Z"/></g>
<g><path style="opacity:0.996" fill="#ee958b" d="M 347.5,358.5 C 351.7,361.934 356.367,364.267 361.5,365.5C 357.987,365.693 354.654,365.026 351.5,363.5C 349.06,362.664 347.727,360.997 347.5,358.5 Z"/></g>
<g><path style="opacity:0.486" fill="#faada9" d="M 363.5,365.5 C 372.173,365.334 380.84,365.5 389.5,366C 390.737,366.232 391.737,366.732 392.5,367.5C 382.677,366.97 373.01,366.303 363.5,365.5 Z"/></g>
<g><path style="opacity:1" fill="#ed9992" d="M 287.5,370.5 C 288.167,371.167 288.833,371.833 289.5,372.5C 290.901,376.631 291.567,380.964 291.5,385.5C 289.095,380.888 287.762,375.888 287.5,370.5 Z"/></g>
<g><path style="opacity:0.798" fill="#e19086" d="M 392.5,367.5 C 394.173,368.343 395.34,369.676 396,371.5C 396.827,386.006 396.661,400.339 395.5,414.5C 395.667,400.829 395.5,387.163 395,373.5C 394.722,372.584 394.222,371.918 393.5,371.5C 393.167,370.167 392.833,368.833 392.5,367.5 Z"/></g>
<g><path style="opacity:1" fill="#ea847f" d="M 291.5,385.5 C 293.624,386.031 295.124,387.365 296,389.5C 297.462,392.436 298.629,395.436 299.5,398.5C 296.048,394.701 293.382,390.368 291.5,385.5 Z"/></g>
<g><path style="opacity:0.745" fill="#fbeaa3" d="M 183.5,389.5 C 188.503,391.92 193.836,393.42 199.5,394C 211.341,394.169 223.007,394.669 234.5,395.5C 231.167,395.5 227.833,395.5 224.5,395.5C 210.653,396.15 196.986,395.15 183.5,392.5C 183.5,391.5 183.5,390.5 183.5,389.5 Z"/></g>
<g><path style="opacity:1" fill="#ec938c" d="M 299.5,399.5 C 302.179,399.525 303.512,400.858 303.5,403.5C 301.833,402.5 300.5,401.167 299.5,399.5 Z"/></g>
<g><path style="opacity:0.725" fill="#f1bcb5" d="M 305.5,405.5 C 307.027,405.427 308.027,406.094 308.5,407.5C 306.973,407.573 305.973,406.906 305.5,405.5 Z"/></g>
<g><path style="opacity:1" fill="#ed8077" d="M 303.5,403.5 C 305.589,403.857 307.589,404.523 309.5,405.5C 312.42,409.463 316.42,411.63 321.5,412C 322.955,413.626 324.622,414.792 326.5,415.5C 325.167,415.5 323.833,415.5 322.5,415.5C 317.031,414.132 312.364,411.465 308.5,407.5C 308.027,406.094 307.027,405.427 305.5,405.5C 304.5,405.167 303.833,404.5 303.5,403.5 Z"/></g>
<g><path style="opacity:1" fill="#f7e68a" d="M 99.5,407.5 C 100.496,407.414 101.329,407.748 102,408.5C 102.548,412.17 103.048,415.837 103.5,419.5C 101.26,415.902 99.9264,411.902 99.5,407.5 Z"/></g>
<g><path style="opacity:0.961" fill="#f19e9d" d="M 322.5,415.5 C 323.833,415.5 325.167,415.5 326.5,415.5C 327.5,416.167 328.5,416.833 329.5,417.5C 326.848,417.59 324.515,416.924 322.5,415.5 Z"/></g>
<g><path style="opacity:0.989" fill="#fae695" d="M 224.5,395.5 C 227.833,395.5 231.167,395.5 234.5,395.5C 240.653,396.492 243.82,400.159 244,406.5C 244.667,422.5 244.667,438.5 244,454.5C 243.881,458.005 242.714,461.005 240.5,463.5C 240.372,461.345 240.872,459.345 242,457.5C 242.667,439.5 242.667,421.5 242,403.5C 241.417,401.998 240.584,400.665 239.5,399.5C 234.606,397.346 229.606,396.013 224.5,395.5 Z"/></g>
<g><path style="opacity:1" fill="#ed8c81" d="M 393.5,371.5 C 394.222,371.918 394.722,372.584 395,373.5C 395.5,387.163 395.667,400.829 395.5,414.5C 394.15,418.025 391.484,419.858 387.5,420C 373.5,420.667 359.5,420.667 345.5,420C 341.975,419.821 338.641,419.321 335.5,418.5C 352.837,418.667 370.17,418.5 387.5,418C 389.78,417.767 391.78,416.934 393.5,415.5C 394.784,400.813 394.784,386.146 393.5,371.5 Z"/></g>
<g><path style="opacity:1" fill="#fae997" d="M 103.5,419.5 C 105.19,421.504 106.524,423.837 107.5,426.5C 108.325,427.386 109.325,427.719 110.5,427.5C 111.5,430.833 112.5,434.167 113.5,437.5C 108.927,432.243 105.594,426.243 103.5,419.5 Z"/></g>
<g><path style="opacity:1" fill="#fceba4" d="M 113.5,437.5 C 116.19,439.193 118.19,441.527 119.5,444.5C 116.781,442.781 114.781,440.447 113.5,437.5 Z"/></g>
<g><path style="opacity:0.816" fill="#fdecab" d="M 122.5,447.5 C 124.749,448.08 126.415,449.413 127.5,451.5C 125.251,450.92 123.585,449.587 122.5,447.5 Z"/></g>
<g><path style="opacity:1" fill="#f8e896" d="M 137.5,457.5 C 142.212,457.692 146.212,459.359 149.5,462.5C 144.968,461.895 140.968,460.228 137.5,457.5 Z"/></g>
<g><path style="opacity:0.988" fill="#f7e896" d="M 149.5,462.5 C 155.082,462.21 160.416,463.043 165.5,465C 188.833,465.667 212.167,465.667 235.5,465C 236.905,463.731 238.571,463.231 240.5,463.5C 238.266,465.446 235.599,466.613 232.5,467C 211.5,467.667 190.5,467.667 169.5,467C 162.501,466.414 155.834,464.914 149.5,462.5 Z"/></g>
</svg>
